# xmcd CD database file
#
# Track frame offsets:
#        150
#        18755
#        33912
#        51011
#        67378
#        79135
#        93467
#        107329
#        119580
#        137667
#        154051
#
# Disc length: 2300 seconds
#
# Revision: 0
# Processed by: cddbd v1.5.2PL0 Copyright (c) Steve Scherf et al.
# Submitted via: CUERipper 2.1.5
#
DISCID=8b08fa0b
DTITLE=Merle Haggard - Chicago Wind
DYEAR=2005
DGENRE=Country
TTITLE0=Chicago Wind
TTITLE1=Where's All The Freedom
TTITLE2=White Man Singin' The Blues
TTITLE3=Leavin' Not The Only Way to Go
TTITLE4=What I've Been Meaning to Say
TTITLE5=Mexico
TTITLE6=Honky Tonk Man
TTITLE7=America First
TTITLE8=It Always Will Be
TTITLE9=I Still Can't Say Goodbye
TTITLE10=Some Of Us Fly
EXTD=
EXTT0=
EXTT1=
EXTT2=
EXTT3=
EXTT4=
EXTT5=
EXTT6=
EXTT7=
EXTT8=
EXTT9=
EXTT10=
PLAYORDER=
